<svg width="24" height="25" viewBox="0 0 24 25" fill="none" xmlns="http://www.w3.org/2000/svg">
<path d="M2 12.2667C2 8.49543 2 6.60981 3.17157 5.43824C4.34315 4.26667 6.22876 4.26667 10 4.26667H14C17.7712 4.26667 19.6569 4.26667 20.8284 5.43824C22 6.60981 22 8.49543 22 12.2667V14.2667C22 18.0379 22 19.9235 20.8284 21.0951C19.6569 22.2667 17.7712 22.2667 14 22.2667H10C6.22876 22.2667 4.34315 22.2667 3.17157 21.0951C2 19.9235 2 18.0379 2 14.2667V12.2667Z" stroke="#AFB2BF" stroke-width="1.5"/>
<path d="M7 4.26667V2.76667" stroke="#AFB2BF" stroke-width="1.5" stroke-linecap="round"/>
<path d="M17 4.26667V2.76667" stroke="#AFB2BF" stroke-width="1.5" stroke-linecap="round"/>
<path d="M2.5 9.26667H21.5" stroke="#AFB2BF" stroke-width="1.5" stroke-linecap="round"/>
<path d="M18 17.2667C18 17.819 17.5523 18.2667 17 18.2667C16.4477 18.2667 16 17.819 16 17.2667C16 16.7144 16.4477 16.2667 17 16.2667C17.5523 16.2667 18 16.7144 18 17.2667Z" fill="#AFB2BF"/>
<path d="M18 13.2667C18 13.819 17.5523 14.2667 17 14.2667C16.4477 14.2667 16 13.819 16 13.2667C16 12.7144 16.4477 12.2667 17 12.2667C17.5523 12.2667 18 12.7144 18 13.2667Z" fill="#AFB2BF"/>
<path d="M13 17.2667C13 17.819 12.5523 18.2667 12 18.2667C11.4477 18.2667 11 17.819 11 17.2667C11 16.7144 11.4477 16.2667 12 16.2667C12.5523 16.2667 13 16.7144 13 17.2667Z" fill="#AFB2BF"/>
<path d="M13 13.2667C13 13.819 12.5523 14.2667 12 14.2667C11.4477 14.2667 11 13.819 11 13.2667C11 12.7144 11.4477 12.2667 12 12.2667C12.5523 12.2667 13 12.7144 13 13.2667Z" fill="#AFB2BF"/>
<path d="M8 17.2667C8 17.819 7.55228 18.2667 7 18.2667C6.44772 18.2667 6 17.819 6 17.2667C6 16.7144 6.44772 16.2667 7 16.2667C7.55228 16.2667 8 16.7144 8 17.2667Z" fill="#AFB2BF"/>
<path d="M8 13.2667C8 13.819 7.55228 14.2667 7 14.2667C6.44772 14.2667 6 13.819 6 13.2667C6 12.7144 6.44772 12.2667 7 12.2667C7.55228 12.2667 8 12.7144 8 13.2667Z" fill="#AFB2BF"/>
</svg>
