<svg width="234" height="61" viewBox="0 0 234 61" fill="none" xmlns="http://www.w3.org/2000/svg">
<path d="M17.4634 38.706C17.3794 38.706 17.2674 38.678 17.1274 38.622C17.0154 38.566 16.8894 38.51 16.7494 38.454L1.62937 28.164C1.23737 27.884 0.929367 27.618 0.705367 27.366C0.509367 27.086 0.411367 26.736 0.411367 26.316V25.014C0.411367 24.594 0.509367 24.258 0.705367 24.006C0.929367 23.754 1.23737 23.488 1.62937 23.208L16.7494 12.918C16.8894 12.834 17.0154 12.764 17.1274 12.708C17.2674 12.652 17.3794 12.624 17.4634 12.624C17.7154 12.624 17.9254 12.708 18.0934 12.876C18.2614 13.044 18.3454 13.254 18.3454 13.506V18C18.3454 18.448 18.2194 18.798 17.9674 19.05C17.7154 19.274 17.4494 19.484 17.1694 19.68L8.01337 25.686L17.1694 31.734C17.4494 31.902 17.7154 32.098 17.9674 32.322C18.2194 32.546 18.3454 32.882 18.3454 33.33V37.866C18.3454 38.118 18.2614 38.328 18.0934 38.496C17.9254 38.636 17.7154 38.706 17.4634 38.706Z" fill="#D77CE6"/>
<path d="M18.5366 22.294C18.6206 22.294 18.7326 22.322 18.8726 22.378C18.9846 22.434 19.1106 22.49 19.2506 22.546L34.3706 32.836C34.7626 33.116 35.0706 33.382 35.2946 33.634C35.4906 33.914 35.5886 34.264 35.5886 34.684L35.5886 35.986C35.5886 36.406 35.4906 36.742 35.2946 36.994C35.0706 37.246 34.7626 37.512 34.3706 37.792L19.2506 48.082C19.1106 48.166 18.9846 48.236 18.8726 48.292C18.7326 48.348 18.6206 48.376 18.5366 48.376C18.2846 48.376 18.0746 48.292 17.9066 48.124C17.7386 47.956 17.6546 47.746 17.6546 47.494L17.6546 43C17.6546 42.552 17.7806 42.202 18.0326 41.95C18.2846 41.726 18.5506 41.516 18.8306 41.32L27.9866 35.314L18.8306 29.266C18.5506 29.098 18.2846 28.902 18.0326 28.678C17.7806 28.454 17.6546 28.118 17.6546 27.67L17.6546 23.134C17.6546 22.882 17.7386 22.672 17.9066 22.504C18.0746 22.364 18.2846 22.294 18.5366 22.294Z" fill="#753DCD"/>
<path d="M61.264 20.2C62.752 20.2 64.04 20.448 65.128 20.944C66.232 21.44 67.08 22.144 67.672 23.056C68.264 23.968 68.56 25.048 68.56 26.296C68.56 27.528 68.264 28.608 67.672 29.536C67.08 30.448 66.232 31.152 65.128 31.648C64.04 32.128 62.752 32.368 61.264 32.368H57.88V37H53.992V20.2H61.264ZM61.048 29.2C62.216 29.2 63.104 28.952 63.712 28.456C64.32 27.944 64.624 27.224 64.624 26.296C64.624 25.352 64.32 24.632 63.712 24.136C63.104 23.624 62.216 23.368 61.048 23.368H57.88V29.2H61.048ZM84.3141 24.088V37H80.7621V35.464C80.2661 36.024 79.6741 36.456 78.9861 36.76C78.2981 37.048 77.5541 37.192 76.7541 37.192C75.0581 37.192 73.7141 36.704 72.7221 35.728C71.7301 34.752 71.2341 33.304 71.2341 31.384V24.088H74.9781V30.832C74.9781 32.912 75.8501 33.952 77.5941 33.952C78.4901 33.952 79.2101 33.664 79.7541 33.088C80.2981 32.496 80.5701 31.624 80.5701 30.472V24.088H84.3141ZM91.3587 25.792C91.8067 25.168 92.4067 24.696 93.1587 24.376C93.9267 24.056 94.8067 23.896 95.7987 23.896V27.352C95.3827 27.32 95.1027 27.304 94.9587 27.304C93.8867 27.304 93.0467 27.608 92.4387 28.216C91.8307 28.808 91.5267 29.704 91.5267 30.904V37H87.7827V24.088H91.3587V25.792ZM105.657 23.896C106.857 23.896 107.945 24.176 108.921 24.736C109.913 25.28 110.689 26.056 111.249 27.064C111.809 28.056 112.089 29.216 112.089 30.544C112.089 31.872 111.809 33.04 111.249 34.048C110.689 35.04 109.913 35.816 108.921 36.376C107.945 36.92 106.857 37.192 105.657 37.192C104.009 37.192 102.713 36.672 101.769 35.632V41.656H98.0249V24.088H101.601V25.576C102.529 24.456 103.881 23.896 105.657 23.896ZM105.009 34.12C105.969 34.12 106.753 33.8 107.361 33.16C107.985 32.504 108.297 31.632 108.297 30.544C108.297 29.456 107.985 28.592 107.361 27.952C106.753 27.296 105.969 26.968 105.009 26.968C104.049 26.968 103.257 27.296 102.633 27.952C102.025 28.592 101.721 29.456 101.721 30.544C101.721 31.632 102.025 32.504 102.633 33.16C103.257 33.8 104.049 34.12 105.009 34.12ZM119.227 37.192C117.771 37.192 116.635 36.808 115.819 36.04C115.003 35.256 114.595 34.152 114.595 32.728V19.192H118.339V32.512C118.339 33.056 118.475 33.48 118.747 33.784C119.035 34.072 119.435 34.216 119.947 34.216C120.139 34.216 120.331 34.192 120.523 34.144C120.731 34.096 120.891 34.04 121.003 33.976L121.171 36.88C120.547 37.088 119.899 37.192 119.227 37.192ZM129.279 34.192C129.951 34.192 130.543 34.096 131.055 33.904C131.583 33.696 132.071 33.376 132.519 32.944L134.511 35.104C133.295 36.496 131.519 37.192 129.183 37.192C127.727 37.192 126.439 36.912 125.319 36.352C124.199 35.776 123.335 34.984 122.727 33.976C122.119 32.968 121.815 31.824 121.815 30.544C121.815 29.28 122.111 28.144 122.703 27.136C123.311 26.112 124.135 25.32 125.175 24.76C126.231 24.184 127.415 23.896 128.727 23.896C129.959 23.896 131.079 24.16 132.087 24.688C133.095 25.2 133.895 25.952 134.487 26.944C135.095 27.92 135.399 29.08 135.399 30.424L125.847 32.272C126.119 32.912 126.543 33.392 127.119 33.712C127.711 34.032 128.431 34.192 129.279 34.192ZM128.727 26.728C127.783 26.728 127.015 27.032 126.423 27.64C125.831 28.248 125.519 29.088 125.487 30.16L131.775 28.936C131.599 28.264 131.239 27.728 130.695 27.328C130.151 26.928 129.495 26.728 128.727 26.728ZM143.7 37.288C142.372 37.288 141.084 37.112 139.836 36.76C138.604 36.392 137.612 35.92 136.86 35.344L138.18 32.416C138.9 32.944 139.756 33.368 140.748 33.688C141.74 34.008 142.732 34.168 143.724 34.168C144.828 34.168 145.644 34.008 146.172 33.688C146.7 33.352 146.964 32.912 146.964 32.368C146.964 31.968 146.804 31.64 146.484 31.384C146.18 31.112 145.78 30.896 145.284 30.736C144.804 30.576 144.148 30.4 143.316 30.208C142.036 29.904 140.988 29.6 140.172 29.296C139.356 28.992 138.652 28.504 138.06 27.832C137.484 27.16 137.196 26.264 137.196 25.144C137.196 24.168 137.46 23.288 137.988 22.504C138.516 21.704 139.308 21.072 140.364 20.608C141.436 20.144 142.74 19.912 144.276 19.912C145.348 19.912 146.396 20.04 147.42 20.296C148.444 20.552 149.34 20.92 150.108 21.4L148.908 24.352C147.356 23.472 145.804 23.032 144.252 23.032C143.164 23.032 142.356 23.208 141.828 23.56C141.316 23.912 141.06 24.376 141.06 24.952C141.06 25.528 141.356 25.96 141.948 26.248C142.556 26.52 143.476 26.792 144.708 27.064C145.988 27.368 147.036 27.672 147.852 27.976C148.668 28.28 149.364 28.76 149.94 29.416C150.532 30.072 150.828 30.96 150.828 32.08C150.828 33.04 150.556 33.92 150.012 34.72C149.484 35.504 148.684 36.128 147.612 36.592C146.54 37.056 145.236 37.288 143.7 37.288ZM159.46 37.192C158.084 37.192 156.844 36.912 155.74 36.352C154.652 35.776 153.796 34.984 153.172 33.976C152.564 32.968 152.26 31.824 152.26 30.544C152.26 29.264 152.564 28.12 153.172 27.112C153.796 26.104 154.652 25.32 155.74 24.76C156.844 24.184 158.084 23.896 159.46 23.896C160.82 23.896 162.004 24.184 163.012 24.76C164.036 25.32 164.78 26.128 165.244 27.184L162.34 28.744C161.668 27.56 160.7 26.968 159.436 26.968C158.46 26.968 157.652 27.288 157.012 27.928C156.372 28.568 156.052 29.44 156.052 30.544C156.052 31.648 156.372 32.52 157.012 33.16C157.652 33.8 158.46 34.12 159.436 34.12C160.716 34.12 161.684 33.528 162.34 32.344L165.244 33.928C164.78 34.952 164.036 35.752 163.012 36.328C162.004 36.904 160.82 37.192 159.46 37.192ZM175.154 23.896C176.754 23.896 178.042 24.376 179.018 25.336C180.01 26.296 180.506 27.72 180.506 29.608V37H176.762V30.184C176.762 29.16 176.538 28.4 176.09 27.904C175.642 27.392 174.994 27.136 174.146 27.136C173.202 27.136 172.45 27.432 171.89 28.024C171.33 28.6 171.05 29.464 171.05 30.616V37H167.306V19.192H171.05V25.432C171.546 24.936 172.146 24.56 172.85 24.304C173.554 24.032 174.322 23.896 175.154 23.896ZM190.185 37.192C188.825 37.192 187.601 36.912 186.513 36.352C185.441 35.776 184.601 34.984 183.993 33.976C183.385 32.968 183.081 31.824 183.081 30.544C183.081 29.264 183.385 28.12 183.993 27.112C184.601 26.104 185.441 25.32 186.513 24.76C187.601 24.184 188.825 23.896 190.185 23.896C191.545 23.896 192.761 24.184 193.833 24.76C194.905 25.32 195.745 26.104 196.353 27.112C196.961 28.12 197.265 29.264 197.265 30.544C197.265 31.824 196.961 32.968 196.353 33.976C195.745 34.984 194.905 35.776 193.833 36.352C192.761 36.912 191.545 37.192 190.185 37.192ZM190.185 34.12C191.145 34.12 191.929 33.8 192.537 33.16C193.161 32.504 193.473 31.632 193.473 30.544C193.473 29.456 193.161 28.592 192.537 27.952C191.929 27.296 191.145 26.968 190.185 26.968C189.225 26.968 188.433 27.296 187.809 27.952C187.185 28.592 186.873 29.456 186.873 30.544C186.873 31.632 187.185 32.504 187.809 33.16C188.433 33.8 189.225 34.12 190.185 34.12ZM205.911 37.192C204.551 37.192 203.327 36.912 202.239 36.352C201.167 35.776 200.327 34.984 199.719 33.976C199.111 32.968 198.807 31.824 198.807 30.544C198.807 29.264 199.111 28.12 199.719 27.112C200.327 26.104 201.167 25.32 202.239 24.76C203.327 24.184 204.551 23.896 205.911 23.896C207.271 23.896 208.487 24.184 209.559 24.76C210.631 25.32 211.471 26.104 212.079 27.112C212.687 28.12 212.991 29.264 212.991 30.544C212.991 31.824 212.687 32.968 212.079 33.976C211.471 34.984 210.631 35.776 209.559 36.352C208.487 36.912 207.271 37.192 205.911 37.192ZM205.911 34.12C206.871 34.12 207.655 33.8 208.263 33.16C208.887 32.504 209.199 31.632 209.199 30.544C209.199 29.456 208.887 28.592 208.263 27.952C207.655 27.296 206.871 26.968 205.911 26.968C204.951 26.968 204.159 27.296 203.535 27.952C202.911 28.592 202.599 29.456 202.599 30.544C202.599 31.632 202.911 32.504 203.535 33.16C204.159 33.8 204.951 34.12 205.911 34.12ZM220.126 37.192C218.67 37.192 217.534 36.808 216.718 36.04C215.902 35.256 215.494 34.152 215.494 32.728V19.192H219.238V32.512C219.238 33.056 219.374 33.48 219.646 33.784C219.934 34.072 220.334 34.216 220.846 34.216C221.038 34.216 221.23 34.192 221.422 34.144C221.63 34.096 221.79 34.04 221.902 33.976L222.07 36.88C221.446 37.088 220.798 37.192 220.126 37.192Z" fill="#FAFAFA"/>
</svg>
