<svg width="16" height="17" viewBox="0 0 16 17" fill="none" xmlns="http://www.w3.org/2000/svg">
<path d="M6.10203 4.1055C6.94646 2.59067 7.36868 1.83325 7.99992 1.83325C8.63116 1.83325 9.05338 2.59067 9.89781 4.1055L10.1163 4.49741C10.3562 4.92788 10.4762 5.14311 10.6633 5.28512C10.8504 5.42714 11.0834 5.47985 11.5493 5.58528L11.9736 5.68127C13.6133 6.05229 14.4332 6.2378 14.6283 6.86507C14.8234 7.49235 14.2644 8.14597 13.1465 9.4532L12.8573 9.7914C12.5396 10.1629 12.3808 10.3486 12.3093 10.5784C12.2379 10.8082 12.2619 11.056 12.3099 11.5516L12.3537 12.0028C12.5227 13.747 12.6072 14.6191 12.0965 15.0067C11.5858 15.3944 10.8181 15.0409 9.2828 14.334L8.8856 14.1511C8.4493 13.9503 8.23115 13.8498 7.99992 13.8498C7.76868 13.8498 7.55054 13.9503 7.11424 14.1511L6.71703 14.334C5.1817 15.0409 4.41404 15.3944 3.90335 15.0067C3.39267 14.6191 3.47717 13.747 3.64618 12.0029L3.68991 11.5516C3.73794 11.056 3.76195 10.8082 3.69049 10.5784C3.61904 10.3486 3.4602 10.1629 3.14253 9.7914L2.85332 9.4532C1.73542 8.14597 1.17647 7.49235 1.37153 6.86507C1.5666 6.2378 2.38649 6.05229 4.02628 5.68127L4.45051 5.58528C4.91649 5.47985 5.14947 5.42714 5.33655 5.28512C5.52362 5.14311 5.6436 4.92788 5.88356 4.49741L6.10203 4.1055Z" fill="#FDF41A" stroke="#FDF41A" stroke-width="1.5"/>
</svg>
