<svg width="24" height="25" viewBox="0 0 24 25" fill="none" xmlns="http://www.w3.org/2000/svg">
<path d="M3.27489 15.5623C2.42496 14.4581 2 13.906 2 12.2667C2 10.6273 2.42496 10.0752 3.27489 8.971C4.97196 6.76623 7.81811 4.26667 12 4.26667C16.1819 4.26667 19.028 6.76622 20.7251 8.971C21.575 10.0752 22 10.6273 22 12.2667C22 13.906 21.575 14.4581 20.7251 15.5623C19.028 17.7671 16.1819 20.2667 12 20.2667C7.81811 20.2667 4.97196 17.7671 3.27489 15.5623Z" stroke="#AFB2BF" stroke-width="1.5"/>
<path d="M15 12.2667C15 13.9235 13.6569 15.2667 12 15.2667C10.3431 15.2667 9 13.9235 9 12.2667C9 10.6098 10.3431 9.26667 12 9.26667C13.6569 9.26667 15 10.6098 15 12.2667Z" stroke="#AFB2BF" stroke-width="1.5"/>
</svg>
