<svg width="24" height="24" viewBox="0 0 24 24" fill="none" xmlns="http://www.w3.org/2000/svg">
<path d="M1.64987 10.61C8.09231 7.78751 12.3883 5.92678 14.5378 5.02777C20.675 2.46091 21.9503 2.01502 22.7815 2.00014C22.9643 1.99706 23.3731 2.04262 23.6379 2.25866C23.8614 2.44108 23.9229 2.68751 23.9524 2.86046C23.9818 3.03342 24.0185 3.42741 23.9893 3.73527C23.6567 7.2491 22.2177 15.7763 21.4856 19.7118C21.1758 21.3771 20.5658 21.9354 19.9753 21.9901C18.6919 22.1088 17.7174 21.1373 16.4744 20.3179C14.5294 19.0359 13.4305 18.2378 11.5425 16.9867C9.36064 15.5409 10.7751 14.7462 12.0185 13.4476C12.344 13.1077 17.9985 7.93594 18.1079 7.46679C18.1216 7.40811 18.1343 7.18939 18.0051 7.0739C17.8759 6.95841 17.6851 6.99791 17.5475 7.02932C17.3524 7.07384 14.2452 9.13899 8.22584 13.2248C7.34386 13.8338 6.54499 14.1305 5.82924 14.1149C5.04017 14.0978 3.52233 13.6663 2.39397 13.2975C1.00999 12.8451 -0.0899675 12.606 0.00581422 11.8377C0.0557033 11.4375 0.603724 11.0283 1.64987 10.61Z" fill="#FAFAFA"/>
</svg>
