<svg width="24" height="24" viewBox="0 0 24 24" fill="none" xmlns="http://www.w3.org/2000/svg">
<path d="M22.925 6.3937C22.6375 5.38745 21.9188 4.6687 20.9125 4.3812C19.1875 3.94995 11.8562 3.94995 11.8562 3.94995C11.8562 3.94995 4.66876 3.94995 2.80001 4.3812C1.79376 4.6687 1.075 5.38745 0.787496 6.3937C0.499996 8.26245 0.5 12 0.5 12C0.5 12 0.500004 15.7375 0.931254 17.6062C1.21875 18.6125 1.9375 19.3312 2.94375 19.6187C4.66875 20.05 12 20.05 12 20.05C12 20.05 19.1875 20.05 21.0562 19.6187C22.0625 19.3312 22.7813 18.6125 23.0688 17.6062C23.5 15.7375 23.5 12 23.5 12C23.5 12 23.5 8.26245 22.925 6.3937ZM9.69999 15.45V8.54995L15.7375 12L9.69999 15.45Z" fill="#FAFAFA"/>
</svg>
