<svg width="230" height="33" viewBox="0 0 230 33" fill="none" xmlns="http://www.w3.org/2000/svg">
<path d="M34.6349 18.02C34.6349 16.5942 34.0297 15.3345 31.9826 15.3345C30.9323 15.3345 30.098 15.6363 29.6457 15.9005L29.9772 17.0444C30.3937 16.7809 31.0582 16.5639 31.6855 16.5639C32.7218 16.5625 32.8916 17.1536 32.8916 17.5336V17.6252C30.6293 17.6214 29.1993 18.4097 29.1993 20.0148C29.1993 20.9956 29.9253 21.9151 31.1943 21.9151C31.9687 21.9151 32.623 21.5999 33.0138 21.1025H33.0519C33.0519 21.1025 33.3095 22.1896 34.7345 21.7741C34.662 21.3187 34.6349 20.8391 34.6349 20.2561V18.02ZM32.9472 19.5255C32.9472 19.6406 32.9377 19.7602 32.9041 19.8628C32.7738 20.3019 32.3244 20.6693 31.7652 20.6693C31.2932 20.6693 30.9228 20.4 30.9228 19.8354C30.9228 18.972 31.8684 18.7344 32.9472 18.7403" fill="#050038"/>
<path d="M0 13.3948C0 13.3948 1.47766 19.4905 1.7126 20.478C1.98925 21.6321 2.48474 22.0587 3.91485 21.7746L4.83848 17.9946C5.07196 17.0581 5.23076 16.3866 5.38154 15.4323H5.40715C5.5118 16.3961 5.66259 17.0581 5.85361 17.9976C5.85361 17.9976 6.23052 19.7149 6.42595 20.6145C6.61622 21.5141 7.15193 22.0816 8.55498 21.7746L10.7536 13.3948H8.97873L8.22416 17.0198C8.02439 18.0699 7.84289 18.8972 7.70161 19.8595H7.67598C7.54868 18.9075 7.38689 18.1142 7.17907 17.0854L6.3974 13.3948H4.54574L3.71137 16.9909C3.4735 18.0891 3.25102 18.9695 3.11122 19.9015H3.08708C2.9429 19.0271 2.7475 17.9134 2.54035 16.8567C2.54035 16.8567 2.04487 14.2819 1.86996 13.3948" fill="#050038"/>
<path d="M15.6994 18.02C15.6994 16.5942 15.0927 15.3345 13.0456 15.3345C11.9982 15.3345 11.1625 15.6363 10.7101 15.9005L11.0416 17.0444C11.4567 16.7809 12.1205 16.5639 12.7499 16.5639C13.7862 16.5625 13.956 17.1536 13.956 17.5336V17.6252C11.6938 17.6214 10.2622 18.4097 10.2622 20.0148C10.2622 20.9956 10.9912 21.9151 12.2544 21.9151C13.036 21.9151 13.6845 21.5999 14.0753 21.1025H14.1149C14.1149 21.1025 14.374 22.1896 15.7975 21.7741C15.7243 21.3187 15.6994 20.8391 15.6994 20.2561V18.02ZM14.0102 19.5255C14.0102 19.6406 14.0007 19.7602 13.9685 19.8628C13.8367 20.3019 13.3874 20.6693 12.8268 20.6693C12.3576 20.6693 11.9858 20.4 11.9858 19.8354C11.9858 18.972 12.9314 18.7344 14.0102 18.7403" fill="#050038"/>
<path d="M16.6205 13.3948V21.7716H18.3097V19.9953V13.3948H16.6205Z" fill="#050038"/>
<path d="M39.8191 13.3948V19.5754C39.8191 20.4285 39.9779 21.0233 40.3197 21.3879C40.6198 21.7074 41.1108 21.9155 41.6956 21.9155C42.1977 21.9155 42.6888 21.8181 42.9208 21.7333L42.9003 20.4027C42.7269 20.4432 42.5285 20.478 42.2562 20.478C41.6795 20.478 41.4892 20.1097 41.4892 19.3436V16.9777H42.9603V15.377H41.4892V13.3948" fill="#050038"/>
<path d="M35.4534 15.4798V21.7741H37.1997V18.5506C37.1997 18.3772 37.2106 18.2273 37.2377 18.0886C37.3679 17.4089 37.8796 16.9787 38.6165 16.9787C38.8222 16.9787 38.962 17.0016 39.1172 17.0259V15.3758C38.9869 15.3522 38.8983 15.3396 38.738 15.3396C38.0845 15.3396 37.3438 15.758 37.0313 16.6694H36.9882V15.4798" fill="#050038"/>
<path d="M19.2907 15.4798V21.7741H20.9924V18.0798C20.9924 17.9063 21.0114 17.7292 21.0721 17.569C21.2105 17.1949 21.5537 16.7617 22.1048 16.7617C22.7898 16.7617 23.1134 17.3447 23.1134 18.186V21.7741H24.8106V18.0355C24.8106 17.8723 24.8333 17.6724 24.8808 17.5277C25.017 17.1034 25.3888 16.7617 25.9026 16.7617C26.5949 16.7617 26.9302 17.3322 26.9302 18.324V21.7741H28.6259V18.0628C28.6259 16.113 27.6423 15.3396 26.5254 15.3396C26.0343 15.3396 25.6435 15.4614 25.2922 15.6798C24.995 15.8635 24.7345 16.1226 24.501 16.4613H24.4754C24.2068 15.7839 23.5759 15.3396 22.7518 15.3396C21.695 15.3396 21.2148 15.8776 20.9324 16.3322H20.9067V15.4798" fill="#050038"/>
<path d="M52.0996 15.1973C52.4333 15.1973 52.7144 15.0217 52.751 14.7958L53.0818 11.0173C53.0818 10.6432 52.6449 10.3369 52.0996 10.3369C51.5514 10.3369 51.1174 10.6432 51.1174 11.0173L51.4511 14.7958C51.4863 15.0217 51.7658 15.1973 52.0996 15.1973Z" fill="#050038"/>
<path d="M50.0697 16.3797C50.2351 16.0845 50.2255 15.7568 50.047 15.6107L46.9584 13.4329C46.6371 13.244 46.1563 13.4691 45.8811 13.9458C45.6066 14.4218 45.6623 14.9561 45.977 15.1413L49.3963 16.7398C49.6152 16.8225 49.9013 16.6689 50.0697 16.3767" fill="#050038"/>
<path d="M54.1287 16.3766C54.3035 16.6689 54.5897 16.8224 54.8027 16.7442L58.2221 15.1413C58.5398 14.9523 58.5873 14.4232 58.3187 13.9472C58.0443 13.4704 57.5605 13.2468 57.2399 13.4321L54.1506 15.6077C53.9793 15.756 53.9669 16.0851 54.1323 16.3796" fill="#050038"/>
<path d="M52.0996 19.917C52.4333 19.917 52.7144 20.0926 52.751 20.3185L53.0818 24.0969C53.0818 24.4711 52.6449 24.7744 52.0996 24.7744C51.5514 24.7744 51.1174 24.4711 51.1174 24.0969L51.4511 20.3185C51.4863 20.0926 51.7658 19.917 52.0996 19.917Z" fill="#050038"/>
<path d="M54.1287 18.7384C54.3035 18.4454 54.5897 18.2889 54.8027 18.3738L58.2221 19.9738C58.5398 20.159 58.5873 20.6926 58.3187 21.1693C58.0443 21.6423 57.5605 21.8674 57.2399 21.6822L54.1506 19.5037C53.9793 19.3568 53.9669 19.0292 54.1323 18.7384" fill="#050038"/>
<path d="M50.0697 18.7353C50.2351 19.0297 50.2255 19.3566 50.047 19.5042L46.9584 21.6791C46.6371 21.868 46.1563 21.6422 45.8811 21.1692C45.6066 20.6931 45.6623 20.1588 45.977 19.9736L49.3963 18.3736C49.6152 18.2895 49.9013 18.4445 50.0697 18.7353Z" fill="#050038"/>
<path d="M59.2226 21.3505H59.2651C59.3229 21.3505 59.3463 21.3689 59.3529 21.4154C59.3654 21.4671 59.3719 21.5018 59.3844 21.5165H59.4942C59.4846 21.5054 59.4722 21.4774 59.4656 21.4125C59.4532 21.3564 59.4246 21.3246 59.3844 21.3135V21.3032C59.44 21.2907 59.4722 21.253 59.4722 21.2066C59.4722 21.1645 59.4532 21.1342 59.4341 21.1151C59.3975 21.0973 59.3624 21.0833 59.2848 21.0833C59.216 21.0833 59.1655 21.0892 59.1253 21.0988V21.5165H59.2226V21.3505ZM59.2255 21.1601L59.2753 21.1534C59.3339 21.1534 59.3654 21.1807 59.3654 21.2191C59.3654 21.2619 59.3229 21.2819 59.2687 21.2819H59.2255V21.1601ZM59.2878 20.8767C59.0477 20.8767 58.8574 21.0656 58.8574 21.2973C58.8574 21.535 59.0477 21.7239 59.2878 21.7239C59.5308 21.7239 59.7152 21.535 59.7152 21.2973C59.7152 21.0656 59.5308 20.8767 59.2878 20.8767ZM59.2878 20.9615C59.4722 20.9615 59.609 21.1121 59.609 21.2973C59.609 21.484 59.4722 21.639 59.2878 21.6361C59.1033 21.6361 58.9635 21.484 58.9635 21.2973C58.9635 21.1121 59.1033 20.9615 59.2848 20.9615" fill="#050038"/>
<path d="M79.8476 11.7358C79.3809 11.7358 79 12.1158 79 12.5841V14.3689C79 14.8398 79.3815 15.2206 79.8476 15.2206C80.3136 15.2206 80.6951 14.8405 80.6951 14.3689V12.5841C80.6951 12.1151 80.3143 11.7358 79.8476 11.7358ZM82.5064 23.2912C82.5064 25.482 84.1903 26.8125 86.1099 26.8125C86.8723 26.8125 87.4545 26.6308 87.667 26.5704V24.7451C87.5938 24.7862 87.0354 25.1059 86.2327 25.1059C85.0947 25.1059 84.3613 24.3013 84.3613 23.2906C84.3613 22.2797 85.127 21.4772 86.2327 21.4772C87.0492 21.4772 87.5984 21.8041 87.667 21.84V20.0146C87.5067 19.9669 86.9132 19.7713 86.1099 19.7713C84.0319 19.7713 82.5064 21.2609 82.5064 23.2912ZM89.1615 6.1875C88.8697 6.1875 88.6117 6.33607 88.4591 6.56158C88.3674 6.69689 88.314 6.86005 88.314 7.03581V16.0656C88.314 16.2427 88.3674 16.4065 88.4591 16.5418C88.6117 16.768 88.8697 16.9166 89.1615 16.9166C89.4532 16.9166 89.7114 16.768 89.8638 16.5418C89.9556 16.4058 90.0091 16.242 90.0091 16.0656V7.03649C90.0091 6.86072 89.9556 6.69756 89.8638 6.56225C89.7114 6.33674 89.4532 6.1875 89.1615 6.1875ZM103.126 15.2206C103.593 15.2206 103.974 14.8405 103.974 14.3689V10.2414C103.974 9.77316 103.593 9.39242 103.126 9.39242C102.66 9.39242 102.279 9.77316 102.279 10.2414V14.3696C102.279 14.8405 102.66 15.2206 103.126 15.2206ZM110.863 19.7713C108.782 19.7713 107.289 21.3485 107.289 23.2906C107.289 25.2326 108.781 26.8118 110.863 26.8118C112.945 26.8118 114.44 25.2352 114.44 23.2906C114.44 21.3458 112.945 19.7713 110.863 19.7713ZM110.863 25.0807C109.85 25.0807 109.098 24.2802 109.098 23.2912C109.098 22.3023 109.851 21.503 110.863 21.503C111.876 21.503 112.63 22.3036 112.63 23.2912C112.63 24.2788 111.875 25.0807 110.863 25.0807ZM90.0137 26.6918H91.7213V19.892H90.0137V26.6918ZM84.5045 15.2206C84.9712 15.2206 85.3521 14.8405 85.3521 14.3689V10.2414C85.3521 9.77316 84.9712 9.39242 84.5045 9.39242C84.0378 9.39242 83.657 9.77316 83.657 10.2414V14.3696C83.657 14.8405 84.0378 15.2206 84.5045 15.2206ZM112.441 15.2206C112.908 15.2206 113.289 14.8405 113.289 14.3689V10.2414C113.289 9.77316 112.908 9.39242 112.441 9.39242C111.974 9.39242 111.594 9.77316 111.594 10.2414V14.3696C111.594 14.8405 111.974 15.2206 112.441 15.2206ZM107.784 16.9166C108.076 16.9166 108.334 16.768 108.486 16.5418C108.578 16.4058 108.632 16.242 108.632 16.0656V7.03649C108.632 6.86072 108.578 6.69756 108.486 6.56225C108.334 6.33674 108.076 6.18816 107.784 6.18816C107.492 6.18816 107.234 6.33674 107.082 6.56225C106.99 6.69756 106.937 6.86072 106.937 7.03649V16.0656C106.937 16.2427 106.99 16.4065 107.082 16.5418C107.234 16.768 107.492 16.9166 107.784 16.9166ZM117.098 11.7351C116.631 11.7351 116.25 12.1151 116.25 12.5834V14.3683C116.25 14.8392 116.631 15.2199 117.098 15.2199C117.565 15.2199 117.946 14.8398 117.946 14.3683V12.5834C117.946 12.1144 117.564 11.7351 117.098 11.7351ZM100.332 23.2906C100.332 25.4813 102.016 26.8118 103.935 26.8118C104.698 26.8118 105.28 26.6301 105.492 26.5697V24.7444C105.419 24.7855 104.861 25.1052 104.058 25.1052C102.92 25.1052 102.187 24.3007 102.187 23.2899C102.187 22.2791 102.952 21.4765 104.058 21.4765C104.874 21.4765 105.424 21.8035 105.492 21.8393V20.014C105.332 19.9662 104.738 19.7706 103.935 19.7706C101.857 19.7706 100.332 21.2603 100.332 23.2906ZM98.4761 11.7351C98.4761 11.7351 98.4741 11.7351 98.4735 11.7351C98.4728 11.7351 98.4715 11.7351 98.4709 11.7351C98.0042 11.7351 97.6233 12.1151 97.6233 12.5834V14.3683C97.6233 14.8392 98.0048 15.2199 98.4709 15.2199C98.4715 15.2199 98.4728 15.2199 98.4735 15.2199C98.4741 15.2199 98.4754 15.2199 98.4761 15.2199C98.9428 15.2199 99.3237 14.8398 99.3237 14.3683V12.5834C99.3237 12.1144 98.9421 11.7351 98.4761 11.7351ZM94.6667 14.3689V10.2414C94.6667 9.77316 94.2858 9.39242 93.8191 9.39242C93.3525 9.39242 92.9716 9.77316 92.9716 10.2414V14.3696C92.9716 14.8405 93.3525 15.2212 93.8191 15.2212C94.2858 15.2212 94.6667 14.8405 94.6667 14.3689ZM97.0615 22.5855L96.5902 22.4349C96.309 22.346 95.8074 22.2014 95.8074 21.7876C95.8074 21.4606 96.179 21.2304 96.8635 21.2304C97.4543 21.2304 98.1732 21.4301 98.1982 21.438V19.9868C98.1474 19.9729 97.3652 19.7699 96.5334 19.7699C94.9591 19.7699 94.0119 20.6242 94.0119 21.8957C94.0119 23.0213 94.8046 23.583 95.7558 23.8848C95.8615 23.92 96.0166 23.9684 96.1202 24.0029C96.544 24.1369 96.882 24.3358 96.882 24.6801C96.882 25.0654 96.4912 25.3149 95.6416 25.3149C94.8951 25.3149 94.1796 25.1006 94.029 25.0621V26.6268C94.1128 26.6447 94.9637 26.8125 95.872 26.8125C97.179 26.8125 98.6734 26.2388 98.6734 24.5308C98.6734 23.7025 98.1685 22.9397 97.0602 22.5855H97.0615Z" fill="#050038"/>
<path d="M179.443 20.4896C179.443 19.8439 179.963 19.3201 180.603 19.3201C181.243 19.3201 181.762 19.8439 181.762 20.4896C181.762 21.1353 181.243 21.6589 180.603 21.6589C179.963 21.6589 179.443 21.1353 179.443 20.4896Z" fill="#050038"/>
<path d="M142.452 17.3917C142.452 16.6509 142.31 16.1013 142.026 15.7432C141.741 15.3855 141.311 15.2069 140.732 15.2069H140.116V19.7369H140.587C141.23 19.7369 141.702 19.5447 142.002 19.1589C142.301 18.7737 142.452 18.1846 142.452 17.3917ZM144.648 17.3145C144.648 18.6642 144.288 19.7041 143.569 20.434C142.849 21.1643 141.837 21.5294 140.534 21.5294H138V13.4424H140.71C141.968 13.4424 142.938 13.7744 143.622 14.438C144.306 15.102 144.648 16.0604 144.648 17.3145Z" fill="#050038"/>
<path d="M171.867 19.991C172.139 19.991 172.463 19.9213 172.842 19.7829V21.3007C172.57 21.4212 172.311 21.5075 172.066 21.5585C171.82 21.6103 171.532 21.6361 171.202 21.6361C170.525 21.6361 170.037 21.4645 169.738 21.122C169.439 20.7795 169.289 20.2537 169.289 19.544V17.0573H168.583V15.498H169.289V13.9341L171.321 13.6011V15.498H172.608V17.0573H171.321V19.4052C171.321 19.7958 171.503 19.991 171.867 19.991Z" fill="#050038"/>
<path d="M175.386 17.7655C175.413 17.4352 175.507 17.1933 175.666 17.0386C175.827 16.8843 176.025 16.8071 176.262 16.8071C176.52 16.8071 176.726 16.8937 176.878 17.0684C177.031 17.242 177.111 17.4745 177.118 17.7655H175.386ZM178.229 16.1019C177.75 15.6281 177.07 15.3909 176.19 15.3909C175.265 15.3909 174.554 15.6633 174.055 16.2082C173.557 16.753 173.307 17.5348 173.307 18.5534C173.307 19.5399 173.577 20.3006 174.115 20.8346C174.653 21.3686 175.408 21.636 176.381 21.636C176.848 21.636 177.25 21.6038 177.587 21.5399C177.922 21.4766 178.246 21.3622 178.561 21.197L178.251 19.8376C178.023 19.9317 177.805 20.0041 177.6 20.0518C177.303 20.1212 176.977 20.1561 176.623 20.1561C176.234 20.1561 175.928 20.0603 175.703 19.8688C175.478 19.6769 175.358 19.4123 175.344 19.0752H178.948V18.149C178.948 17.2579 178.708 16.5754 178.229 16.1019Z" fill="#050038"/>
<path d="M151.666 21.5298H153.682V13.4089H151.666V21.5298Z" fill="#050038"/>
<path d="M156.514 18.5007C156.514 19.0186 156.581 19.4135 156.715 19.6849C156.849 19.9566 157.074 20.0923 157.39 20.0923C157.703 20.0923 157.924 19.9566 158.053 19.6849C158.182 19.4135 158.246 19.0186 158.246 18.5007C158.246 17.9857 158.181 17.5972 158.051 17.335C157.92 17.072 157.697 16.9403 157.38 16.9403C157.071 16.9403 156.849 17.0713 156.715 17.3319C156.581 17.5928 156.514 17.9823 156.514 18.5007ZM160.298 18.5007C160.298 19.4872 160.042 20.2568 159.528 20.8084C159.014 21.3603 158.295 21.6365 157.37 21.6365C156.483 21.6365 155.777 21.3543 155.254 20.7898C154.729 20.2253 154.467 19.4626 154.467 18.5007C154.467 17.5173 154.724 16.7532 155.238 16.2083C155.752 15.6635 156.473 15.3911 157.401 15.3911C157.975 15.3911 158.482 15.5173 158.922 15.7694C159.362 16.0216 159.702 16.3826 159.94 16.853C160.179 17.3228 160.298 17.8724 160.298 18.5007Z" fill="#050038"/>
<path d="M161.099 21.5301H163.115V18.4221V15.4978H161.099V21.5301Z" fill="#050038"/>
<path d="M161.099 14.7681H163.115V13.4087H161.099V14.7681Z" fill="#050038"/>
<path d="M167.2 19.9915C167.473 19.9915 167.797 19.9217 168.175 19.7834V21.3011C167.903 21.4216 167.645 21.5079 167.399 21.559C167.153 21.6108 166.865 21.6365 166.535 21.6365C165.858 21.6365 165.37 21.4649 165.071 21.1225C164.772 20.78 164.622 20.2541 164.622 19.5444V17.0578H163.916V15.4984H164.622V13.9579L166.654 13.6016V15.4984H167.941V17.0578H166.654V19.4057C166.654 19.7962 166.837 19.9915 167.2 19.9915Z" fill="#050038"/>
<path d="M147.324 17.766C147.351 17.4357 147.445 17.1937 147.605 17.0391C147.765 16.8847 147.963 16.8076 148.2 16.8076C148.458 16.8076 148.664 16.8942 148.816 17.0689C148.97 17.2425 149.049 17.475 149.056 17.766H147.324ZM150.167 16.1024C149.688 15.6285 149.008 15.3914 148.128 15.3914C147.203 15.3914 146.492 15.6637 145.994 16.2086C145.495 16.7534 145.246 17.5352 145.246 18.5538C145.246 19.5403 145.515 20.301 146.053 20.8351C146.591 21.369 147.346 21.6364 148.319 21.6364C148.786 21.6364 149.188 21.6042 149.525 21.5403C149.86 21.477 150.185 21.3626 150.499 21.1975L150.189 19.838C149.961 19.9322 149.743 20.0046 149.538 20.0523C149.241 20.1216 148.916 20.1566 148.561 20.1566C148.173 20.1566 147.866 20.0607 147.641 19.8692C147.416 19.6773 147.296 19.4127 147.283 19.0756H150.886V18.1494C150.886 17.2583 150.647 16.5758 150.167 16.1024Z" fill="#050038"/>
<path d="M215.232 18.9171H218.509V17.8029H218.149C218.149 18.2291 217.843 18.5433 217.375 18.5433H216.871V16.88H217.415V16.511H215.232V16.88H215.782V18.5433H215.232V18.9159V18.9171Z" fill="#050038"/>
<path d="M220.085 18.9183L221.359 18.9196L222.441 16.8811H222.984V16.511H221.352V16.8811H221.824L221.035 18.3643L220.236 16.8811H220.809V16.511H218.442L218.441 16.8811H218.983L220.085 18.9183Z" fill="#050038"/>
<path d="M208.706 16.511H206.339L206.338 16.8811H206.88L207.982 18.9183L209.256 18.9196L210.338 16.8811H210.881V16.511H209.249V16.8811H209.72L208.932 18.3643L208.134 16.8811H208.706V16.511Z" fill="#050038"/>
<path d="M211.198 17.7166C211.198 18.4253 211.759 18.9891 212.883 18.9891C214.006 18.9891 214.561 18.4253 214.561 17.7166C214.561 17.0177 213.973 16.46 212.875 16.46C211.779 16.46 211.197 17.0177 211.197 17.7166H211.198ZM213.461 17.7227C213.454 18.1598 213.276 18.6153 212.865 18.6079C212.464 18.6006 212.288 18.1501 212.296 17.702C212.304 17.2381 212.522 16.8338 212.897 16.8399C213.272 16.8472 213.47 17.2588 213.462 17.7227H213.461Z" fill="#050038"/>
<path d="M223.297 17.7166C223.297 18.4253 223.857 18.9891 224.981 18.9891C226.105 18.9891 226.66 18.4253 226.66 17.7166C226.66 17.0177 226.072 16.46 224.975 16.46C223.879 16.46 223.297 17.0177 223.297 17.7166ZM224.995 16.8399C225.37 16.8472 225.568 17.2588 225.56 17.7227C225.551 18.1598 225.374 18.6153 224.963 18.6079C224.563 18.6006 224.387 18.1501 224.394 17.702C224.402 17.2381 224.62 16.8338 224.995 16.8399Z" fill="#050038"/>
<path d="M227.609 10.0624L226.238 11.459C227.413 13.3063 228.097 15.509 228.097 17.875C228.097 24.3981 222.904 29.6865 216.5 29.6865C210.096 29.6865 204.903 24.3981 204.903 17.875C204.903 11.3519 210.096 6.06354 216.5 6.06354C218.828 6.06354 220.995 6.76248 222.812 7.96558L224.184 6.56888C222.003 5.02851 219.355 4.125 216.5 4.125C209.045 4.125 203 10.2803 203 17.875C203 25.4684 209.043 31.625 216.5 31.625C223.955 31.625 230 25.4697 230 17.875C230 14.9733 229.116 12.281 227.61 10.0624H227.609Z" fill="#050038"/>
<path d="M223.29 4.6665V5.05251C224.109 5.50426 224.878 6.03761 225.592 6.6367L223.669 8.59591C224.394 9.17554 225.049 9.84283 225.62 10.5807L227.541 8.62396C228.13 9.35209 228.654 10.1375 229.098 10.9595H229.467V4.6665H223.288H223.29Z" fill="#050038"/>
</svg>
