<svg width="134" height="52" viewBox="0 0 134 52" fill="none" xmlns="http://www.w3.org/2000/svg">
<path d="M16.368 21.184C16.416 21.248 16.44 21.336 16.44 21.448C16.44 21.608 16.384 21.744 16.272 21.856C16.176 21.952 16.056 22 15.912 22H12.12C11.736 22 11.456 21.84 11.28 21.52L7.704 15.52H6.144V21.4C6.144 21.576 6.08 21.72 5.952 21.832C5.84 21.944 5.696 22 5.52 22H2.232C2.056 22 1.912 21.944 1.8 21.832C1.688 21.72 1.632 21.576 1.632 21.4V5.824C1.632 5.648 1.688 5.504 1.8 5.392C1.912 5.264 2.056 5.2 2.232 5.2H5.52C5.696 5.2 5.84 5.264 5.952 5.392C6.08 5.504 6.144 5.648 6.144 5.824V11.512H7.488L10.944 5.68C11.152 5.36 11.456 5.2 11.856 5.2H15.528C15.672 5.2 15.792 5.248 15.888 5.344C15.984 5.44 16.032 5.56 16.032 5.704C16.032 5.816 16 5.912 15.936 5.992L11.496 13.288L16.368 21.184ZM29.1654 9.52C29.3094 9.52 29.4294 9.576 29.5254 9.688C29.6374 9.784 29.6934 9.896 29.6934 10.024C29.6934 10.136 29.6694 10.24 29.6214 10.336L25.0614 21.352C24.5494 22.568 24.0614 23.536 23.5974 24.256C23.1334 24.992 22.5814 25.56 21.9414 25.96C21.3174 26.376 20.5414 26.584 19.6134 26.584H18.4134C18.2374 26.584 18.0854 26.52 17.9574 26.392C17.8454 26.28 17.7894 26.136 17.7894 25.96V23.92C17.7894 23.744 17.8454 23.6 17.9574 23.488C18.0854 23.376 18.2374 23.32 18.4134 23.32H19.2534C19.6694 23.32 19.9894 23.2 20.2134 22.96C20.4374 22.736 20.6854 22.296 20.9574 21.64L21.0534 21.424L16.2774 10.336C16.2294 10.208 16.2054 10.12 16.2054 10.072C16.2374 9.912 16.3014 9.784 16.3974 9.688C16.5094 9.576 16.6374 9.52 16.7814 9.52H19.6374C19.9734 9.52 20.2054 9.688 20.3334 10.024L22.9494 16.768L25.7094 10.024C25.8374 9.688 26.0854 9.52 26.4534 9.52H29.1654ZM32.0858 26.56C31.9098 26.56 31.7578 26.504 31.6298 26.392C31.5178 26.28 31.4618 26.136 31.4618 25.96V10.12C31.4618 9.944 31.5178 9.8 31.6298 9.688C31.7578 9.576 31.9098 9.52 32.0858 9.52H34.9418C35.1178 9.52 35.2618 9.576 35.3738 9.688C35.4858 9.8 35.5418 9.944 35.5418 10.12V10.984C36.4058 9.848 37.6458 9.28 39.2618 9.28C40.8138 9.28 42.0298 9.768 42.9098 10.744C43.8058 11.704 44.2858 13.08 44.3498 14.872C44.3658 15.08 44.3738 15.376 44.3738 15.76C44.3738 16.144 44.3658 16.448 44.3498 16.672C44.2858 18.4 43.8058 19.76 42.9098 20.752C42.0138 21.744 40.7978 22.24 39.2618 22.24C37.7098 22.24 36.5498 21.712 35.7818 20.656V25.96C35.7818 26.136 35.7258 26.28 35.6138 26.392C35.5018 26.504 35.3578 26.56 35.1818 26.56H32.0858ZM37.8698 18.904C38.5898 18.904 39.1018 18.696 39.4058 18.28C39.7258 17.848 39.9098 17.256 39.9578 16.504C39.9738 16.344 39.9818 16.096 39.9818 15.76C39.9818 15.424 39.9738 15.176 39.9578 15.016C39.9098 14.264 39.7258 13.68 39.4058 13.264C39.1018 12.832 38.5898 12.616 37.8698 12.616C37.1818 12.616 36.6698 12.84 36.3338 13.288C35.9978 13.72 35.8138 14.272 35.7818 14.944C35.7658 15.152 35.7578 15.456 35.7578 15.856C35.7578 16.24 35.7658 16.536 35.7818 16.744C35.8138 17.368 35.9978 17.888 36.3338 18.304C36.6858 18.704 37.1978 18.904 37.8698 18.904ZM52.4807 22.24C50.6567 22.24 49.1767 21.76 48.0407 20.8C46.9207 19.824 46.3207 18.472 46.2407 16.744L46.2167 15.784L46.2407 14.8C46.3047 13.072 46.9047 11.72 48.0407 10.744C49.1767 9.768 50.6567 9.28 52.4807 9.28C53.8727 9.28 55.0407 9.528 55.9847 10.024C56.9287 10.52 57.6327 11.112 58.0967 11.8C58.5607 12.472 58.8087 13.088 58.8407 13.648C58.8567 13.824 58.8007 13.976 58.6727 14.104C58.5447 14.216 58.3927 14.272 58.2167 14.272H55.0007C54.8247 14.272 54.6887 14.232 54.5927 14.152C54.4967 14.072 54.4087 13.944 54.3287 13.768C54.1527 13.32 53.9207 12.992 53.6327 12.784C53.3607 12.576 53.0087 12.472 52.5767 12.472C51.3447 12.472 50.7047 13.288 50.6567 14.92L50.6327 15.832L50.6567 16.624C50.6727 17.456 50.8407 18.072 51.1607 18.472C51.4807 18.856 51.9527 19.048 52.5767 19.048C53.0407 19.048 53.4007 18.952 53.6567 18.76C53.9287 18.552 54.1527 18.216 54.3287 17.752C54.4087 17.576 54.4967 17.448 54.5927 17.368C54.6887 17.288 54.8247 17.248 55.0007 17.248H58.2167C58.3767 17.248 58.5207 17.304 58.6487 17.416C58.7767 17.528 58.8407 17.664 58.8407 17.824C58.8407 18.32 58.6167 18.92 58.1687 19.624C57.7367 20.312 57.0407 20.92 56.0807 21.448C55.1207 21.976 53.9207 22.24 52.4807 22.24ZM66.7553 22.24C64.8033 22.24 63.2673 21.72 62.1473 20.68C61.0273 19.624 60.4513 18.096 60.4193 16.096V15.352C60.4833 13.448 61.0753 11.96 62.1953 10.888C63.3153 9.816 64.8273 9.28 66.7313 9.28C68.1073 9.28 69.2673 9.56 70.2113 10.12C71.1713 10.664 71.8833 11.424 72.3473 12.4C72.8273 13.36 73.0673 14.456 73.0673 15.688V16.288C73.0673 16.464 73.0033 16.616 72.8753 16.744C72.7633 16.856 72.6193 16.912 72.4433 16.912H64.8353V17.056C64.8513 17.776 65.0193 18.36 65.3393 18.808C65.6593 19.24 66.1153 19.456 66.7073 19.456C67.0913 19.456 67.3953 19.384 67.6193 19.24C67.8593 19.08 68.0833 18.88 68.2913 18.64C68.4353 18.48 68.5473 18.384 68.6273 18.352C68.7233 18.304 68.8673 18.28 69.0593 18.28H72.2032C72.3472 18.28 72.4673 18.328 72.5633 18.424C72.6753 18.504 72.7313 18.608 72.7313 18.736C72.7313 19.152 72.4913 19.64 72.0113 20.2C71.5473 20.76 70.8593 21.24 69.9473 21.64C69.0513 22.04 67.9873 22.24 66.7553 22.24ZM68.6513 14.464V14.416C68.6513 13.648 68.4833 13.056 68.1473 12.64C67.8113 12.208 67.3393 11.992 66.7313 11.992C66.1233 11.992 65.6513 12.208 65.3153 12.64C64.9953 13.056 64.8353 13.648 64.8353 14.416V14.464H68.6513ZM81.0276 22.24C79.2036 22.24 77.7236 21.76 76.5876 20.8C75.4676 19.824 74.8676 18.472 74.7876 16.744L74.7636 15.784L74.7876 14.8C74.8516 13.072 75.4516 11.72 76.5876 10.744C77.7236 9.768 79.2036 9.28 81.0276 9.28C82.4196 9.28 83.5876 9.528 84.5316 10.024C85.4756 10.52 86.1796 11.112 86.6436 11.8C87.1076 12.472 87.3556 13.088 87.3876 13.648C87.4036 13.824 87.3476 13.976 87.2196 14.104C87.0916 14.216 86.9396 14.272 86.7636 14.272H83.5476C83.3716 14.272 83.2356 14.232 83.1396 14.152C83.0436 14.072 82.9556 13.944 82.8756 13.768C82.6996 13.32 82.4676 12.992 82.1796 12.784C81.9076 12.576 81.5556 12.472 81.1236 12.472C79.8916 12.472 79.2516 13.288 79.2036 14.92L79.1796 15.832L79.2036 16.624C79.2196 17.456 79.3876 18.072 79.7076 18.472C80.0276 18.856 80.4996 19.048 81.1236 19.048C81.5876 19.048 81.9476 18.952 82.2036 18.76C82.4756 18.552 82.6996 18.216 82.8756 17.752C82.9556 17.576 83.0436 17.448 83.1396 17.368C83.2356 17.288 83.3716 17.248 83.5476 17.248H86.7636C86.9236 17.248 87.0676 17.304 87.1956 17.416C87.3236 17.528 87.3876 17.664 87.3876 17.824C87.3876 18.32 87.1636 18.92 86.7156 19.624C86.2836 20.312 85.5876 20.92 84.6276 21.448C83.6676 21.976 82.4676 22.24 81.0276 22.24ZM94.0301 22C93.8541 22 93.7021 21.944 93.5741 21.832C93.4621 21.72 93.4061 21.576 93.4061 21.4V9.112H89.1821C89.0061 9.112 88.8541 9.056 88.7261 8.944C88.6141 8.832 88.5581 8.688 88.5581 8.512V5.824C88.5581 5.648 88.6141 5.504 88.7261 5.392C88.8541 5.264 89.0061 5.2 89.1821 5.2H102.214C102.39 5.2 102.534 5.264 102.646 5.392C102.774 5.504 102.838 5.648 102.838 5.824V8.512C102.838 8.688 102.774 8.832 102.646 8.944C102.534 9.056 102.39 9.112 102.214 9.112H97.9901V21.4C97.9901 21.576 97.9261 21.72 97.7981 21.832C97.6861 21.944 97.5421 22 97.3661 22H94.0301ZM110.681 22.24C108.665 22.24 107.113 21.776 106.025 20.848C104.953 19.904 104.369 18.568 104.273 16.84C104.257 16.632 104.249 16.272 104.249 15.76C104.249 15.248 104.257 14.888 104.273 14.68C104.369 12.984 104.969 11.664 106.073 10.72C107.193 9.76 108.729 9.28 110.681 9.28C112.633 9.28 114.161 9.76 115.265 10.72C116.385 11.664 116.993 12.984 117.089 14.68C117.121 15.096 117.137 15.456 117.137 15.76C117.137 16.064 117.121 16.424 117.089 16.84C116.993 18.568 116.401 19.904 115.312 20.848C114.241 21.776 112.697 22.24 110.681 22.24ZM110.681 19.216C111.337 19.216 111.825 19.016 112.145 18.616C112.465 18.2 112.649 17.568 112.697 16.72C112.713 16.56 112.721 16.24 112.721 15.76C112.721 15.28 112.713 14.96 112.697 14.8C112.649 13.968 112.465 13.344 112.145 12.928C111.825 12.512 111.337 12.304 110.681 12.304C110.025 12.304 109.537 12.512 109.217 12.928C108.897 13.344 108.713 13.968 108.665 14.8L108.641 15.76L108.665 16.72C108.713 17.568 108.897 18.2 109.217 18.616C109.537 19.016 110.025 19.216 110.681 19.216ZM120.023 22C119.863 22 119.719 21.944 119.591 21.832C119.479 21.704 119.423 21.56 119.423 21.4V10.12C119.423 9.944 119.479 9.8 119.591 9.688C119.719 9.576 119.863 9.52 120.023 9.52H131.183C131.359 9.52 131.503 9.576 131.615 9.688C131.727 9.8 131.783 9.944 131.783 10.12V21.4C131.783 21.56 131.727 21.704 131.615 21.832C131.503 21.944 131.359 22 131.183 22H128.183C128.023 22 127.879 21.944 127.751 21.832C127.639 21.704 127.583 21.56 127.583 21.4V12.784H123.647V21.4C123.647 21.576 123.583 21.72 123.455 21.832C123.343 21.944 123.199 22 123.023 22H120.023Z" fill="#AFB2BF"/>
<g clip-path="url(#clip0_206_1836)">
<path d="M6.10203 39.6056C6.94646 38.0907 7.36868 37.3333 7.99992 37.3333C8.63116 37.3333 9.05338 38.0907 9.89781 39.6056L10.1163 39.9975C10.3562 40.4279 10.4762 40.6432 10.6633 40.7852C10.8504 40.9272 11.0834 40.9799 11.5493 41.0853L11.9736 41.1813C13.6133 41.5523 14.4332 41.7379 14.6283 42.3651C14.8234 42.9924 14.2644 43.646 13.1465 44.9533L12.8573 45.2915C12.5396 45.6629 12.3808 45.8487 12.3093 46.0785C12.2379 46.3082 12.2619 46.5561 12.3099 47.0517L12.3537 47.5029C12.5227 49.247 12.6072 50.1191 12.0965 50.5068C11.5858 50.8945 10.8181 50.541 9.2828 49.8341L8.8856 49.6512C8.4493 49.4503 8.23115 49.3499 7.99992 49.3499C7.76868 49.3499 7.55054 49.4503 7.11424 49.6512L6.71703 49.8341C5.1817 50.541 4.41404 50.8945 3.90335 50.5068C3.39267 50.1191 3.47717 49.247 3.64618 47.5029L3.68991 47.0517C3.73794 46.5561 3.76195 46.3082 3.69049 46.0785C3.61904 45.8487 3.4602 45.6629 3.14253 45.2915L2.85332 44.9533C1.73542 43.646 1.17647 42.9924 1.37153 42.3651C1.5666 41.7379 2.38649 41.5524 4.02628 41.1813L4.45051 41.0853C4.91649 40.9799 5.14947 40.9272 5.33655 40.7852C5.52362 40.6432 5.6436 40.4279 5.88356 39.9975L6.10203 39.6056Z" fill="#FDF41A" stroke="#FDF41A" stroke-width="1.5"/>
</g>
<g clip-path="url(#clip1_206_1836)">
<path d="M30.102 39.6056C30.9465 38.0907 31.3687 37.3333 31.9999 37.3333C32.6312 37.3333 33.0534 38.0907 33.8978 39.6056L34.1163 39.9975C34.3562 40.4279 34.4762 40.6432 34.6633 40.7852C34.8504 40.9272 35.0834 40.9799 35.5493 41.0853L35.9736 41.1813C37.6133 41.5523 38.4332 41.7379 38.6283 42.3651C38.8234 42.9924 38.2644 43.646 37.1465 44.9533L36.8573 45.2915C36.5396 45.6629 36.3808 45.8487 36.3093 46.0785C36.2379 46.3082 36.2619 46.5561 36.3099 47.0517L36.3537 47.5029C36.5227 49.247 36.6072 50.1191 36.0965 50.5068C35.5858 50.8945 34.8181 50.541 33.2828 49.8341L32.8856 49.6512C32.4493 49.4503 32.2312 49.3499 31.9999 49.3499C31.7687 49.3499 31.5505 49.4503 31.1142 49.6512L30.717 49.8341C29.1817 50.541 28.414 50.8945 27.9034 50.5068C27.3927 50.1191 27.4772 49.247 27.6462 47.5029L27.6899 47.0517C27.7379 46.5561 27.7619 46.3082 27.6905 46.0785C27.619 45.8487 27.4602 45.6629 27.1425 45.2915L26.8533 44.9533C25.7354 43.646 25.1765 42.9924 25.3715 42.3651C25.5666 41.7379 26.3865 41.5524 28.0263 41.1813L28.4505 41.0853C28.9165 40.9799 29.1495 40.9272 29.3365 40.7852C29.5236 40.6432 29.6436 40.4279 29.8836 39.9975L30.102 39.6056Z" fill="#FDF41A" stroke="#FDF41A" stroke-width="1.5"/>
</g>
<g clip-path="url(#clip2_206_1836)">
<path d="M54.102 39.6056C54.9465 38.0907 55.3687 37.3333 55.9999 37.3333C56.6312 37.3333 57.0534 38.0907 57.8978 39.6056L58.1163 39.9975C58.3562 40.4279 58.4762 40.6432 58.6633 40.7852C58.8504 40.9272 59.0834 40.9799 59.5493 41.0853L59.9736 41.1813C61.6133 41.5523 62.4332 41.7379 62.6283 42.3651C62.8234 42.9924 62.2644 43.646 61.1465 44.9533L60.8573 45.2915C60.5396 45.6629 60.3808 45.8487 60.3093 46.0785C60.2379 46.3082 60.2619 46.5561 60.3099 47.0517L60.3537 47.5029C60.5227 49.247 60.6072 50.1191 60.0965 50.5068C59.5858 50.8945 58.8181 50.541 57.2828 49.8341L56.8856 49.6512C56.4493 49.4503 56.2312 49.3499 55.9999 49.3499C55.7687 49.3499 55.5505 49.4503 55.1142 49.6512L54.717 49.8341C53.1817 50.541 52.414 50.8945 51.9034 50.5068C51.3927 50.1191 51.4772 49.247 51.6462 47.5029L51.6899 47.0517C51.7379 46.5561 51.7619 46.3082 51.6905 46.0785C51.619 45.8487 51.4602 45.6629 51.1425 45.2915L50.8533 44.9533C49.7354 43.646 49.1765 42.9924 49.3715 42.3651C49.5666 41.7379 50.3865 41.5524 52.0263 41.1813L52.4505 41.0853C52.9165 40.9799 53.1495 40.9272 53.3365 40.7852C53.5236 40.6432 53.6436 40.4279 53.8836 39.9975L54.102 39.6056Z" fill="#FDF41A" stroke="#FDF41A" stroke-width="1.5"/>
</g>
<g clip-path="url(#clip3_206_1836)">
<path d="M78.102 39.6056C78.9465 38.0907 79.3687 37.3333 79.9999 37.3333C80.6312 37.3333 81.0534 38.0907 81.8978 39.6056L82.1163 39.9975C82.3562 40.4279 82.4762 40.6432 82.6633 40.7852C82.8504 40.9272 83.0834 40.9799 83.5493 41.0853L83.9736 41.1813C85.6133 41.5523 86.4332 41.7379 86.6283 42.3651C86.8234 42.9924 86.2644 43.646 85.1465 44.9533L84.8573 45.2915C84.5396 45.6629 84.3808 45.8487 84.3093 46.0785C84.2379 46.3082 84.2619 46.5561 84.3099 47.0517L84.3537 47.5029C84.5227 49.247 84.6072 50.1191 84.0965 50.5068C83.5858 50.8945 82.8181 50.541 81.2828 49.8341L80.8856 49.6512C80.4493 49.4503 80.2312 49.3499 79.9999 49.3499C79.7687 49.3499 79.5505 49.4503 79.1142 49.6512L78.717 49.8341C77.1817 50.541 76.414 50.8945 75.9034 50.5068C75.3927 50.1191 75.4772 49.247 75.6462 47.5029L75.6899 47.0517C75.7379 46.5561 75.7619 46.3082 75.6905 46.0785C75.619 45.8487 75.4602 45.6629 75.1425 45.2915L74.8533 44.9533C73.7354 43.646 73.1765 42.9924 73.3715 42.3651C73.5666 41.7379 74.3865 41.5524 76.0263 41.1813L76.4505 41.0853C76.9165 40.9799 77.1495 40.9272 77.3365 40.7852C77.5236 40.6432 77.6436 40.4279 77.8836 39.9975L78.102 39.6056Z" fill="#FDF41A" stroke="#FDF41A" stroke-width="1.5"/>
</g>
<g clip-path="url(#clip4_206_1836)">
<path d="M102.102 39.6056C102.946 38.0907 103.369 37.3333 104 37.3333C104.631 37.3333 105.053 38.0907 105.898 39.6056L106.116 39.9975C106.356 40.4279 106.476 40.6432 106.663 40.7852C106.85 40.9272 107.083 40.9799 107.549 41.0853L107.974 41.1813C109.613 41.5523 110.433 41.7379 110.628 42.3651C110.823 42.9924 110.264 43.646 109.147 44.9533L108.857 45.2915C108.54 45.6629 108.381 45.8487 108.309 46.0785C108.238 46.3082 108.262 46.5561 108.31 47.0517L108.354 47.5029C108.523 49.247 108.607 50.1191 108.096 50.5068C107.586 50.8945 106.818 50.541 105.283 49.8341L104.886 49.6512C104.449 49.4503 104.231 49.3499 104 49.3499C103.769 49.3499 103.551 49.4503 103.114 49.6512L102.717 49.8341C101.182 50.541 100.414 50.8945 99.9034 50.5068C99.3927 50.1191 99.4772 49.247 99.6462 47.5029L99.6899 47.0517C99.7379 46.5561 99.7619 46.3082 99.6905 46.0785C99.619 45.8487 99.4602 45.6629 99.1425 45.2915L98.8533 44.9533C97.7354 43.646 97.1765 42.9924 97.3715 42.3651C97.5666 41.7379 98.3865 41.5524 100.026 41.1813L100.451 41.0853C100.916 40.9799 101.149 40.9272 101.337 40.7852C101.524 40.6432 101.644 40.4279 101.884 39.9975L102.102 39.6056Z" fill="#FDF41A" stroke="#FDF41A" stroke-width="1.5"/>
</g>
<defs>
<clipPath id="clip0_206_1836">
<rect y="36" width="16" height="16" rx="5" fill="white"/>
</clipPath>
<clipPath id="clip1_206_1836">
<rect x="24" y="36" width="16" height="16" rx="5" fill="white"/>
</clipPath>
<clipPath id="clip2_206_1836">
<rect x="48" y="36" width="16" height="16" rx="5" fill="white"/>
</clipPath>
<clipPath id="clip3_206_1836">
<rect x="72" y="36" width="16" height="16" rx="5" fill="white"/>
</clipPath>
<clipPath id="clip4_206_1836">
<rect x="96" y="36" width="16" height="16" rx="5" fill="white"/>
</clipPath>
</defs>
</svg>
