<svg width="114" height="53" viewBox="0 0 114 53" fill="none" xmlns="http://www.w3.org/2000/svg">
<path d="M96.5139 21.8069C95.9389 21.8069 95.4502 21.3235 95.4502 20.7549V7.81862C95.4502 7.25 95.9102 6.76666 96.5139 6.76666C97.0889 6.76666 97.5777 7.22156 97.5777 7.81862V20.7549C97.5777 21.3235 97.0889 21.8069 96.5139 21.8069Z" fill="#AFB2BF"/>
<path d="M60.3176 18.8215C59.8864 18.4804 59.2826 18.5372 58.9089 18.9637C57.9601 20.1294 55.6026 19.8451 54.9989 19.5892C54.1076 19.248 53.6764 18.5088 53.6764 17.4284V10.349H58.3626C58.9376 10.349 59.4264 9.89408 59.4264 9.29702C59.4264 8.7284 58.9664 8.24506 58.3626 8.24506H53.6764V2.95683C53.6764 2.41663 53.2451 1.96173 52.6701 1.96173C52.1239 1.96173 51.6926 2.3882 51.6926 2.95683V17.4284C51.6926 19.3049 52.6126 20.7549 54.2514 21.4088C54.7689 21.6078 55.5739 21.7784 56.4651 21.7784C57.8739 21.7784 59.4839 21.3804 60.4614 20.1862C60.8064 19.7598 60.7489 19.1627 60.3176 18.8215Z" fill="#AFB2BF"/>
<path d="M44.0451 21.8637C43.7289 21.8637 43.3839 21.8353 43.0676 21.8069C39.6176 21.3804 37.5476 19.7882 37.5476 17.599C37.5476 17.0304 38.0076 16.5471 38.6114 16.5471C39.1864 16.5471 39.6751 17.0304 39.6751 17.599C39.6751 18.6225 41.1126 19.4471 43.3551 19.7314C45.5976 20.0157 47.1789 18.9069 47.4089 18.0539C47.5526 17.5422 47.4951 17.0873 47.2651 16.7176C47.0064 16.3196 46.5751 16.0637 45.9139 15.9216C41.4001 15.1255 38.4101 14.3863 37.9789 11.5716C37.8351 10.548 38.1226 9.52451 38.8126 8.72843C39.7901 7.59118 41.4864 6.93726 43.4701 6.93726C47.0926 6.93726 49.4501 8.52941 49.4501 11.0314C49.4501 11.6 48.9614 12.0833 48.3864 12.0833C47.8114 12.0833 47.3226 11.6 47.3226 11.0314C47.3226 9.55294 45.2526 9.04118 43.4701 9.04118C42.1476 9.04118 40.9976 9.43922 40.4226 10.0931C40.1351 10.4343 39.9914 10.8324 40.0776 11.2588C40.2501 12.3108 41.1989 12.9647 46.3164 13.8461H46.3451C47.8976 14.1588 48.7026 14.9833 49.0764 15.5804C49.6226 16.4333 49.7664 17.4853 49.4789 18.5657C48.9614 20.3 46.8914 21.8637 44.0451 21.8637Z" fill="#AFB2BF"/>
<path d="M68.425 21.8637C64.2563 21.8637 60.8638 18.5088 60.8638 14.4147C60.8638 10.2922 64.2563 6.9657 68.425 6.9657C72.22 6.9657 75.4688 9.7804 75.9288 13.5049C75.9863 13.9882 75.7275 14.3863 75.555 14.5853C75.2963 14.8696 74.9513 15.0402 74.6063 15.0402H63.02C63.3075 17.7128 65.6363 19.8167 68.425 19.8167C70.2938 19.8167 72.1913 18.85 72.9963 17.5137C73.2838 17.002 73.945 16.8598 74.4338 17.1441C74.9225 17.4284 75.1238 18.0824 74.8075 18.5657C73.6575 20.499 71.07 21.8637 68.425 21.8637ZM63.1925 12.9079H73.6575C72.9963 10.6618 70.8688 9.04119 68.425 9.04119C65.9525 9.04119 63.8538 10.6618 63.1925 12.9079Z" fill="#AFB2BF"/>
<path d="M85.4738 6.93724C83.3463 6.93724 81.4201 7.81862 80.0401 9.21175V7.96077C80.0401 7.39215 79.5513 6.90881 78.9763 6.90881C78.4013 6.90881 77.9126 7.36372 77.9126 7.96077V25.901C77.9126 26.4696 78.3726 26.9529 78.9763 26.9529C79.5513 26.9529 80.0401 26.4696 80.0401 25.901V19.5608C81.4201 20.9823 83.3463 21.8353 85.4738 21.8353C89.6426 21.8353 93.0063 18.4804 93.0063 14.3863C93.0063 10.2921 89.6426 6.93724 85.4738 6.93724ZM85.4738 19.7598C82.4838 19.7598 80.0401 17.3431 80.0401 14.3863C80.0401 11.4294 82.4838 9.01274 85.4738 9.01274C88.4638 9.01274 90.9076 11.4294 90.9076 14.3863C90.9076 17.3431 88.4638 19.7598 85.4738 19.7598Z" fill="#AFB2BF"/>
<path d="M111.607 21.75C110.572 21.75 109.537 21.2951 108.589 20.4137C107.87 19.7314 103.27 15.1539 103.098 14.9549C102.896 14.7559 102.781 14.5 102.781 14.2157C102.781 13.9314 102.896 13.6755 103.098 13.4765L109.423 7.36373C109.854 6.96569 110.515 6.96569 110.917 7.39216C111.32 7.7902 111.32 8.47256 110.889 8.87059L105.34 14.2157C106.691 15.5804 109.509 18.3667 110.026 18.8784C110.601 19.4186 111.147 19.6745 111.665 19.6461C111.809 19.6461 112.154 19.6461 112.441 19.6461C113.016 19.6461 113.505 20.1294 113.505 20.698C113.505 21.2667 113.016 21.7216 112.441 21.75C112.154 21.75 111.866 21.75 111.723 21.75C111.694 21.75 111.636 21.75 111.607 21.75Z" fill="#AFB2BF"/>
<path d="M101.373 21.7784C100.798 21.7784 100.309 21.3235 100.309 20.7265V2.92843C100.309 2.3598 100.798 1.87646 101.373 1.87646C101.948 1.87646 102.436 2.33137 102.436 2.92843V20.7265C102.436 21.3235 101.948 21.7784 101.373 21.7784Z" fill="#AFB2BF"/>
<path d="M96.5427 4.63428C97.2902 4.63428 97.8939 4.03722 97.8939 3.29801C97.8939 2.55879 97.2902 1.96173 96.5427 1.96173C95.7952 1.96173 95.1914 2.55879 95.1914 3.29801C95.1914 4.03722 95.7952 4.63428 96.5427 4.63428Z" fill="#AFB2BF"/>
<path d="M25.9325 8.0745L21.2175 3.38332C19.3775 1.59214 16.9625 0.597046 14.375 0.597046C11.7875 0.597046 9.3725 1.59214 7.56125 3.38332L2.84625 8.0745C1.00625 9.86567 0 12.2539 0 14.8127C0 17.3716 1.00625 19.7598 2.8175 21.551L7.5325 26.2137C9.34375 28.0049 11.7875 29 14.3463 29C16.8475 29 19.2338 28.0618 21.045 26.3274L25.875 21.551C27.6863 19.7598 28.6925 17.3431 28.6925 14.8127C28.75 12.2539 27.7725 9.86567 25.9325 8.0745Z" fill="#AFB2BF"/>
<path d="M17.8537 23.0294C16.9625 23.8824 15.7262 24.4226 14.4037 24.4226C13.0237 24.4226 11.7875 23.8824 10.8675 22.9725L13.1962 20.6696C13.5125 20.9824 13.915 21.1529 14.4037 21.1529C14.8637 21.1529 15.295 20.9539 15.6112 20.6696L20.3262 16.0069C20.6425 15.6941 20.815 15.2961 20.815 14.8127C20.815 14.3578 20.6137 13.9314 20.3262 13.6186C20.01 13.3059 19.6075 13.1353 19.1187 13.1353C18.63 13.1353 18.2275 13.3343 17.9112 13.6186L13.1962 18.3098C12.305 19.1912 11.04 19.7598 9.65997 19.7598C8.27997 19.7598 7.04372 19.1912 6.12372 18.3098C5.23247 17.4284 4.65747 16.1775 4.65747 14.8127C4.65747 13.448 5.20372 12.2255 6.12372 11.3157L10.8387 6.65294C11.73 5.77157 12.995 5.20294 14.375 5.20294C15.755 5.20294 16.9912 5.74314 17.9112 6.65294L15.5825 8.95588C15.2662 8.64314 14.8637 8.47255 14.375 8.47255C13.8862 8.47255 13.4837 8.67157 13.1675 8.95588L8.45247 13.6186C8.13622 13.9314 7.96372 14.3294 7.96372 14.8127C7.96372 15.2676 8.16497 15.6941 8.45247 16.0069C8.76872 16.3196 9.17122 16.4902 9.65997 16.4902C10.12 16.4902 10.5512 16.2912 10.8675 16.0069L15.5825 11.3441C16.4737 10.4627 17.7387 9.89412 19.1187 9.89412C20.4987 9.89412 21.735 10.4343 22.655 11.3441C23.5462 12.2255 24.1212 13.4765 24.1212 14.8412C24.1212 16.2059 23.575 17.4284 22.655 18.3382L17.8537 23.0294Z" fill="#1E1F29"/>
<g clip-path="url(#clip0_206_1848)">
<path d="M6.10203 40.6056C6.94646 39.0907 7.36868 38.3333 7.99992 38.3333C8.63116 38.3333 9.05338 39.0907 9.89781 40.6056L10.1163 40.9975C10.3562 41.4279 10.4762 41.6432 10.6633 41.7852C10.8504 41.9272 11.0834 41.9799 11.5493 42.0853L11.9736 42.1813C13.6133 42.5524 14.4332 42.7379 14.6283 43.3651C14.8234 43.9924 14.2644 44.646 13.1465 45.9533L12.8573 46.2915C12.5396 46.6629 12.3808 46.8487 12.3093 47.0785C12.2379 47.3082 12.2619 47.5561 12.3099 48.0517L12.3537 48.5029C12.5227 50.247 12.6072 51.1191 12.0965 51.5068C11.5858 51.8945 10.8181 51.541 9.2828 50.8341L8.8856 50.6512C8.4493 50.4503 8.23115 50.3499 7.99992 50.3499C7.76868 50.3499 7.55054 50.4503 7.11424 50.6512L6.71703 50.8341C5.1817 51.541 4.41404 51.8945 3.90335 51.5068C3.39267 51.1191 3.47717 50.247 3.64618 48.5029L3.68991 48.0517C3.73794 47.5561 3.76195 47.3082 3.69049 47.0785C3.61904 46.8487 3.4602 46.6629 3.14253 46.2915L2.85332 45.9533C1.73542 44.646 1.17647 43.9924 1.37153 43.3651C1.5666 42.7379 2.38649 42.5524 4.02628 42.1813L4.45051 42.0853C4.91649 41.9799 5.14947 41.9272 5.33655 41.7852C5.52362 41.6432 5.6436 41.4279 5.88356 40.9975L6.10203 40.6056Z" fill="#FDF41A" stroke="#FDF41A" stroke-width="1.5"/>
</g>
<g clip-path="url(#clip1_206_1848)">
<path d="M30.102 40.6056C30.9465 39.0907 31.3687 38.3333 31.9999 38.3333C32.6312 38.3333 33.0534 39.0907 33.8978 40.6056L34.1163 40.9975C34.3562 41.4279 34.4762 41.6432 34.6633 41.7852C34.8504 41.9272 35.0834 41.9799 35.5493 42.0853L35.9736 42.1813C37.6133 42.5524 38.4332 42.7379 38.6283 43.3651C38.8234 43.9924 38.2644 44.646 37.1465 45.9533L36.8573 46.2915C36.5396 46.6629 36.3808 46.8487 36.3093 47.0785C36.2379 47.3082 36.2619 47.5561 36.3099 48.0517L36.3537 48.5029C36.5227 50.247 36.6072 51.1191 36.0965 51.5068C35.5858 51.8945 34.8181 51.541 33.2828 50.8341L32.8856 50.6512C32.4493 50.4503 32.2312 50.3499 31.9999 50.3499C31.7687 50.3499 31.5505 50.4503 31.1142 50.6512L30.717 50.8341C29.1817 51.541 28.414 51.8945 27.9034 51.5068C27.3927 51.1191 27.4772 50.247 27.6462 48.5029L27.6899 48.0517C27.7379 47.5561 27.7619 47.3082 27.6905 47.0785C27.619 46.8487 27.4602 46.6629 27.1425 46.2915L26.8533 45.9533C25.7354 44.646 25.1765 43.9924 25.3715 43.3651C25.5666 42.7379 26.3865 42.5524 28.0263 42.1813L28.4505 42.0853C28.9165 41.9799 29.1495 41.9272 29.3365 41.7852C29.5236 41.6432 29.6436 41.4279 29.8836 40.9975L30.102 40.6056Z" fill="#FDF41A" stroke="#FDF41A" stroke-width="1.5"/>
</g>
<g clip-path="url(#clip2_206_1848)">
<path d="M54.102 40.6056C54.9465 39.0907 55.3687 38.3333 55.9999 38.3333C56.6312 38.3333 57.0534 39.0907 57.8978 40.6056L58.1163 40.9975C58.3562 41.4279 58.4762 41.6432 58.6633 41.7852C58.8504 41.9272 59.0834 41.9799 59.5493 42.0853L59.9736 42.1813C61.6133 42.5524 62.4332 42.7379 62.6283 43.3651C62.8234 43.9924 62.2644 44.646 61.1465 45.9533L60.8573 46.2915C60.5396 46.6629 60.3808 46.8487 60.3093 47.0785C60.2379 47.3082 60.2619 47.5561 60.3099 48.0517L60.3537 48.5029C60.5227 50.247 60.6072 51.1191 60.0965 51.5068C59.5858 51.8945 58.8181 51.541 57.2828 50.8341L56.8856 50.6512C56.4493 50.4503 56.2312 50.3499 55.9999 50.3499C55.7687 50.3499 55.5505 50.4503 55.1142 50.6512L54.717 50.8341C53.1817 51.541 52.414 51.8945 51.9034 51.5068C51.3927 51.1191 51.4772 50.247 51.6462 48.5029L51.6899 48.0517C51.7379 47.5561 51.7619 47.3082 51.6905 47.0785C51.619 46.8487 51.4602 46.6629 51.1425 46.2915L50.8533 45.9533C49.7354 44.646 49.1765 43.9924 49.3715 43.3651C49.5666 42.7379 50.3865 42.5524 52.0263 42.1813L52.4505 42.0853C52.9165 41.9799 53.1495 41.9272 53.3365 41.7852C53.5236 41.6432 53.6436 41.4279 53.8836 40.9975L54.102 40.6056Z" fill="#FDF41A" stroke="#FDF41A" stroke-width="1.5"/>
</g>
<g clip-path="url(#clip3_206_1848)">
<path d="M78.102 40.6056C78.9465 39.0907 79.3687 38.3333 79.9999 38.3333C80.6312 38.3333 81.0534 39.0907 81.8978 40.6056L82.1163 40.9975C82.3562 41.4279 82.4762 41.6432 82.6633 41.7852C82.8504 41.9272 83.0834 41.9799 83.5493 42.0853L83.9736 42.1813C85.6133 42.5524 86.4332 42.7379 86.6283 43.3651C86.8234 43.9924 86.2644 44.646 85.1465 45.9533L84.8573 46.2915C84.5396 46.6629 84.3808 46.8487 84.3093 47.0785C84.2379 47.3082 84.2619 47.5561 84.3099 48.0517L84.3537 48.5029C84.5227 50.247 84.6072 51.1191 84.0965 51.5068C83.5858 51.8945 82.8181 51.541 81.2828 50.8341L80.8856 50.6512C80.4493 50.4503 80.2312 50.3499 79.9999 50.3499C79.7687 50.3499 79.5505 50.4503 79.1142 50.6512L78.717 50.8341C77.1817 51.541 76.414 51.8945 75.9034 51.5068C75.3927 51.1191 75.4772 50.247 75.6462 48.5029L75.6899 48.0517C75.7379 47.5561 75.7619 47.3082 75.6905 47.0785C75.619 46.8487 75.4602 46.6629 75.1425 46.2915L74.8533 45.9533C73.7354 44.646 73.1765 43.9924 73.3715 43.3651C73.5666 42.7379 74.3865 42.5524 76.0263 42.1813L76.4505 42.0853C76.9165 41.9799 77.1495 41.9272 77.3365 41.7852C77.5236 41.6432 77.6436 41.4279 77.8836 40.9975L78.102 40.6056Z" fill="#FDF41A" stroke="#FDF41A" stroke-width="1.5"/>
</g>
<g clip-path="url(#clip4_206_1848)">
<path d="M102.102 40.6056C102.946 39.0907 103.369 38.3333 104 38.3333C104.631 38.3333 105.053 39.0907 105.898 40.6056L106.116 40.9975C106.356 41.4279 106.476 41.6432 106.663 41.7852C106.85 41.9272 107.083 41.9799 107.549 42.0853L107.974 42.1813C109.613 42.5524 110.433 42.7379 110.628 43.3651C110.823 43.9924 110.264 44.646 109.147 45.9533L108.857 46.2915C108.54 46.6629 108.381 46.8487 108.309 47.0785C108.238 47.3082 108.262 47.5561 108.31 48.0517L108.354 48.5029C108.523 50.247 108.607 51.1191 108.096 51.5068C107.586 51.8945 106.818 51.541 105.283 50.8341L104.886 50.6512C104.449 50.4503 104.231 50.3499 104 50.3499C103.769 50.3499 103.551 50.4503 103.114 50.6512L102.717 50.8341C101.182 51.541 100.414 51.8945 99.9034 51.5068C99.3927 51.1191 99.4772 50.247 99.6462 48.5029L99.6899 48.0517C99.7379 47.5561 99.7619 47.3082 99.6905 47.0785C99.619 46.8487 99.4602 46.6629 99.1425 46.2915L98.8533 45.9533C97.7354 44.646 97.1765 43.9924 97.3715 43.3651C97.5666 42.7379 98.3865 42.5524 100.026 42.1813L100.451 42.0853C100.916 41.9799 101.149 41.9272 101.337 41.7852C101.524 41.6432 101.644 41.4279 101.884 40.9975L102.102 40.6056Z" fill="#FDF41A" stroke="#FDF41A" stroke-width="1.5"/>
</g>
<defs>
<clipPath id="clip0_206_1848">
<rect y="37" width="16" height="16" rx="5" fill="white"/>
</clipPath>
<clipPath id="clip1_206_1848">
<rect x="24" y="37" width="16" height="16" rx="5" fill="white"/>
</clipPath>
<clipPath id="clip2_206_1848">
<rect x="48" y="37" width="16" height="16" rx="5" fill="white"/>
</clipPath>
<clipPath id="clip3_206_1848">
<rect x="72" y="37" width="16" height="16" rx="5" fill="white"/>
</clipPath>
<clipPath id="clip4_206_1848">
<rect x="96" y="37" width="16" height="16" rx="5" fill="white"/>
</clipPath>
</defs>
</svg>
