<svg width="112" height="58" viewBox="0 0 112 58" fill="none" xmlns="http://www.w3.org/2000/svg">
<g clip-path="url(#clip0_206_1872)">
<path d="M14.05 8.112L7.024 4.056L0 8.112V4.056L7.025 0L14.051 4.056L14.05 8.112Z" fill="#AFB2BF"/>
<path d="M0 11.518H3.68V20.459C3.68 22.769 5.405 23.895 7.025 23.895C8.659 23.895 10.371 22.739 10.371 20.428V11.518H14.051V20.672C14.051 22.8 13.382 24.442 12.044 25.568C10.705 26.693 9.033 27.241 6.994 27.241C4.957 27.241 3.284 26.694 1.977 25.568C0.669 24.443 0 22.862 0 20.763V11.518ZM45.866 22.63C44.752 23.622 43.483 24.108 42.036 24.108C39.396 24.108 37.626 22.604 37.426 20.275H49.316C49.316 20.275 49.396 19.523 49.396 18.817C49.396 16.627 48.696 14.802 47.266 13.312C45.868 11.822 44.044 11.092 41.823 11.092C39.482 11.092 37.565 11.822 36.044 13.312C34.554 14.802 33.794 16.748 33.794 19.182V19.302C33.794 21.705 34.554 23.621 36.044 25.051C37.534 26.48 39.511 27.21 41.914 27.21C44.708 27.21 46.931 26.108 48.599 24.208L45.866 22.63ZM38.872 15.167C39.692 14.528 40.697 14.194 41.822 14.194C42.886 14.194 43.768 14.528 44.529 15.198C45.255 15.808 45.647 16.557 45.681 17.418H37.52C37.638 16.528 38.088 15.778 38.873 15.168L38.872 15.167ZM82.91 29.276C81.417 32.801 79.855 34 77.46 34H75.8V30.738H77.142C77.966 30.738 78.732 30.428 79.462 28.744L80.192 27.058L73.896 11.518H77.637L82.108 22.71L86.701 11.518H90.441L82.91 29.276ZM28.377 5.64899V12.906C27.171 11.826 25.295 11.183 23.481 11.183C21.321 11.183 19.497 11.943 18.007 13.493C16.547 15.014 15.817 16.899 15.817 19.18C15.817 21.462 16.547 23.347 18.007 24.898C19.497 26.419 21.322 27.18 23.481 27.18C25.971 27.18 27.545 26.201 28.377 25.434V26.845H32.027V5.64999L28.377 5.64899ZM27.282 22.527C26.4 23.409 25.275 23.866 23.967 23.866C22.659 23.866 21.595 23.409 20.713 22.527C19.863 21.645 19.436 20.52 19.436 19.182C19.436 17.843 19.862 16.718 20.713 15.836C21.595 14.954 22.659 14.498 23.967 14.498C25.275 14.498 26.4 14.954 27.282 15.836C28.194 16.718 28.652 17.843 28.652 19.182C28.652 20.52 28.194 21.645 27.282 22.527ZM68.222 11.214C65.45 11.214 64.009 12.364 63.022 13.472C62.627 12.719 61.515 11.214 58.917 11.214C56.721 11.214 55.427 12.324 54.781 13.114V11.52H51.163V26.847H54.781V18.027C54.781 15.959 56.059 14.469 57.761 14.469C59.496 14.469 60.499 15.777 60.499 17.875V26.846H64.118V18.026C64.118 15.928 65.364 14.468 67.158 14.468C68.892 14.468 69.895 15.776 69.895 17.873V26.845H73.545V17.357C73.545 13.361 71.397 11.215 68.222 11.215V11.214Z" fill="#AFB2BF"/>
</g>
<g clip-path="url(#clip1_206_1872)">
<path d="M6.10203 45.6056C6.94646 44.0907 7.36868 43.3333 7.99992 43.3333C8.63116 43.3333 9.05338 44.0907 9.89781 45.6056L10.1163 45.9975C10.3562 46.4279 10.4762 46.6432 10.6633 46.7852C10.8504 46.9272 11.0834 46.9799 11.5493 47.0853L11.9736 47.1813C13.6133 47.5524 14.4332 47.7379 14.6283 48.3651C14.8234 48.9924 14.2644 49.646 13.1465 50.9533L12.8573 51.2915C12.5396 51.6629 12.3808 51.8487 12.3093 52.0785C12.2379 52.3082 12.2619 52.5561 12.3099 53.0517L12.3537 53.5029C12.5227 55.247 12.6072 56.1191 12.0965 56.5068C11.5858 56.8945 10.8181 56.541 9.2828 55.8341L8.8856 55.6512C8.4493 55.4503 8.23115 55.3499 7.99992 55.3499C7.76868 55.3499 7.55054 55.4503 7.11424 55.6512L6.71703 55.8341C5.1817 56.541 4.41404 56.8945 3.90335 56.5068C3.39267 56.1191 3.47717 55.247 3.64618 53.5029L3.68991 53.0517C3.73794 52.5561 3.76195 52.3082 3.69049 52.0785C3.61904 51.8487 3.4602 51.6629 3.14253 51.2915L2.85332 50.9533C1.73542 49.646 1.17647 48.9924 1.37153 48.3651C1.5666 47.7379 2.38649 47.5524 4.02628 47.1813L4.45051 47.0853C4.91649 46.9799 5.14947 46.9272 5.33655 46.7852C5.52362 46.6432 5.6436 46.4279 5.88356 45.9975L6.10203 45.6056Z" fill="#FDF41A" stroke="#FDF41A" stroke-width="1.5"/>
</g>
<g clip-path="url(#clip2_206_1872)">
<path d="M30.102 45.6056C30.9465 44.0907 31.3687 43.3333 31.9999 43.3333C32.6312 43.3333 33.0534 44.0907 33.8978 45.6056L34.1163 45.9975C34.3562 46.4279 34.4762 46.6432 34.6633 46.7852C34.8504 46.9272 35.0834 46.9799 35.5493 47.0853L35.9736 47.1813C37.6133 47.5524 38.4332 47.7379 38.6283 48.3651C38.8234 48.9924 38.2644 49.646 37.1465 50.9533L36.8573 51.2915C36.5396 51.6629 36.3808 51.8487 36.3093 52.0785C36.2379 52.3082 36.2619 52.5561 36.3099 53.0517L36.3537 53.5029C36.5227 55.247 36.6072 56.1191 36.0965 56.5068C35.5858 56.8945 34.8181 56.541 33.2828 55.8341L32.8856 55.6512C32.4493 55.4503 32.2312 55.3499 31.9999 55.3499C31.7687 55.3499 31.5505 55.4503 31.1142 55.6512L30.717 55.8341C29.1817 56.541 28.414 56.8945 27.9034 56.5068C27.3927 56.1191 27.4772 55.247 27.6462 53.5029L27.6899 53.0517C27.7379 52.5561 27.7619 52.3082 27.6905 52.0785C27.619 51.8487 27.4602 51.6629 27.1425 51.2915L26.8533 50.9533C25.7354 49.646 25.1765 48.9924 25.3715 48.3651C25.5666 47.7379 26.3865 47.5524 28.0263 47.1813L28.4505 47.0853C28.9165 46.9799 29.1495 46.9272 29.3365 46.7852C29.5236 46.6432 29.6436 46.4279 29.8836 45.9975L30.102 45.6056Z" fill="#FDF41A" stroke="#FDF41A" stroke-width="1.5"/>
</g>
<g clip-path="url(#clip3_206_1872)">
<path d="M54.102 45.6056C54.9465 44.0907 55.3687 43.3333 55.9999 43.3333C56.6312 43.3333 57.0534 44.0907 57.8978 45.6056L58.1163 45.9975C58.3562 46.4279 58.4762 46.6432 58.6633 46.7852C58.8504 46.9272 59.0834 46.9799 59.5493 47.0853L59.9736 47.1813C61.6133 47.5524 62.4332 47.7379 62.6283 48.3651C62.8234 48.9924 62.2644 49.646 61.1465 50.9533L60.8573 51.2915C60.5396 51.6629 60.3808 51.8487 60.3093 52.0785C60.2379 52.3082 60.2619 52.5561 60.3099 53.0517L60.3537 53.5029C60.5227 55.247 60.6072 56.1191 60.0965 56.5068C59.5858 56.8945 58.8181 56.541 57.2828 55.8341L56.8856 55.6512C56.4493 55.4503 56.2312 55.3499 55.9999 55.3499C55.7687 55.3499 55.5505 55.4503 55.1142 55.6512L54.717 55.8341C53.1817 56.541 52.414 56.8945 51.9034 56.5068C51.3927 56.1191 51.4772 55.247 51.6462 53.5029L51.6899 53.0517C51.7379 52.5561 51.7619 52.3082 51.6905 52.0785C51.619 51.8487 51.4602 51.6629 51.1425 51.2915L50.8533 50.9533C49.7354 49.646 49.1765 48.9924 49.3715 48.3651C49.5666 47.7379 50.3865 47.5524 52.0263 47.1813L52.4505 47.0853C52.9165 46.9799 53.1495 46.9272 53.3365 46.7852C53.5236 46.6432 53.6436 46.4279 53.8836 45.9975L54.102 45.6056Z" fill="#FDF41A" stroke="#FDF41A" stroke-width="1.5"/>
</g>
<g clip-path="url(#clip4_206_1872)">
<path d="M78.102 45.6056C78.9465 44.0907 79.3687 43.3333 79.9999 43.3333C80.6312 43.3333 81.0534 44.0907 81.8978 45.6056L82.1163 45.9975C82.3562 46.4279 82.4762 46.6432 82.6633 46.7852C82.8504 46.9272 83.0834 46.9799 83.5493 47.0853L83.9736 47.1813C85.6133 47.5524 86.4332 47.7379 86.6283 48.3651C86.8234 48.9924 86.2644 49.646 85.1465 50.9533L84.8573 51.2915C84.5396 51.6629 84.3808 51.8487 84.3093 52.0785C84.2379 52.3082 84.2619 52.5561 84.3099 53.0517L84.3537 53.5029C84.5227 55.247 84.6072 56.1191 84.0965 56.5068C83.5858 56.8945 82.8181 56.541 81.2828 55.8341L80.8856 55.6512C80.4493 55.4503 80.2312 55.3499 79.9999 55.3499C79.7687 55.3499 79.5505 55.4503 79.1142 55.6512L78.717 55.8341C77.1817 56.541 76.414 56.8945 75.9034 56.5068C75.3927 56.1191 75.4772 55.247 75.6462 53.5029L75.6899 53.0517C75.7379 52.5561 75.7619 52.3082 75.6905 52.0785C75.619 51.8487 75.4602 51.6629 75.1425 51.2915L74.8533 50.9533C73.7354 49.646 73.1765 48.9924 73.3715 48.3651C73.5666 47.7379 74.3865 47.5524 76.0263 47.1813L76.4505 47.0853C76.9165 46.9799 77.1495 46.9272 77.3365 46.7852C77.5236 46.6432 77.6436 46.4279 77.8836 45.9975L78.102 45.6056Z" fill="#FDF41A" stroke="#FDF41A" stroke-width="1.5"/>
</g>
<g clip-path="url(#clip5_206_1872)">
<path d="M102.102 45.6056C102.946 44.0907 103.369 43.3333 104 43.3333C104.631 43.3333 105.053 44.0907 105.898 45.6056L106.116 45.9975C106.356 46.4279 106.476 46.6432 106.663 46.7852C106.85 46.9272 107.083 46.9799 107.549 47.0853L107.974 47.1813C109.613 47.5524 110.433 47.7379 110.628 48.3651C110.823 48.9924 110.264 49.646 109.147 50.9533L108.857 51.2915C108.54 51.6629 108.381 51.8487 108.309 52.0785C108.238 52.3082 108.262 52.5561 108.31 53.0517L108.354 53.5029C108.523 55.247 108.607 56.1191 108.096 56.5068C107.586 56.8945 106.818 56.541 105.283 55.8341L104.886 55.6512C104.449 55.4503 104.231 55.3499 104 55.3499C103.769 55.3499 103.551 55.4503 103.114 55.6512L102.717 55.8341C101.182 56.541 100.414 56.8945 99.9034 56.5068C99.3927 56.1191 99.4772 55.247 99.6462 53.5029L99.6899 53.0517C99.7379 52.5561 99.7619 52.3082 99.6905 52.0785C99.619 51.8487 99.4602 51.6629 99.1425 51.2915L98.8533 50.9533C97.7354 49.646 97.1765 48.9924 97.3715 48.3651C97.5666 47.7379 98.3865 47.5524 100.026 47.1813L100.451 47.0853C100.916 46.9799 101.149 46.9272 101.337 46.7852C101.524 46.6432 101.644 46.4279 101.884 45.9975L102.102 45.6056Z" fill="#FDF41A" stroke="#FDF41A" stroke-width="1.5"/>
</g>
<defs>
<clipPath id="clip0_206_1872">
<rect width="91" height="34" fill="white"/>
</clipPath>
<clipPath id="clip1_206_1872">
<rect y="42" width="16" height="16" rx="5" fill="white"/>
</clipPath>
<clipPath id="clip2_206_1872">
<rect x="24" y="42" width="16" height="16" rx="5" fill="white"/>
</clipPath>
<clipPath id="clip3_206_1872">
<rect x="48" y="42" width="16" height="16" rx="5" fill="white"/>
</clipPath>
<clipPath id="clip4_206_1872">
<rect x="72" y="42" width="16" height="16" rx="5" fill="white"/>
</clipPath>
<clipPath id="clip5_206_1872">
<rect x="96" y="42" width="16" height="16" rx="5" fill="white"/>
</clipPath>
</defs>
</svg>
